<svg width="312" height="269" viewBox="0 0 312 269" fill="none" xmlns="http://www.w3.org/2000/svg">
<path d="M306 262.052H6V51.8599H156.001L202.577 6H306V262.052Z" stroke="#354067" stroke-width="12" stroke-linecap="round" stroke-linejoin="round"/>
<path d="M102.577 125.547C102.577 132.076 97.2828 137.37 90.7534 137.37C84.2241 137.37 78.9302 132.076 78.9302 125.547C78.9302 119.018 84.2241 113.724 90.7534 113.724C97.2828 113.724 102.577 119.018 102.577 125.547Z" fill="#354067"/>
<path d="M235.857 125.547C235.857 132.076 230.563 137.37 224.034 137.37C217.505 137.37 212.211 132.076 212.211 125.547C212.211 119.018 217.505 113.724 224.034 113.724C230.563 113.724 235.857 119.018 235.857 125.547Z" fill="#354067"/>
<path d="M113.102 205.578C113.102 181.116 132.932 161.285 157.394 161.285C181.856 161.285 201.686 181.116 201.686 205.578" stroke="#354067" stroke-width="12" stroke-linecap="round" stroke-linejoin="round"/>
</svg>
